<svg xmlns="http://www.w3.org/2000/svg" xmlns:xlink="http://www.w3.org/1999/xlink" width="3779" zoomAndPan="magnify" viewBox="0 0 2835 2834.999876" height="3779" preserveAspectRatio="xMidYMid meet" version="1.0"><path fill="#ffffff" d="M 2616.914062 422.160156 L 2279.457031 24.703125 C 2266.167969 9.066406 2247.550781 0.449219 2227.027344 0.449219 C 2206.511719 0.449219 2187.890625 9.066406 2174.589844 24.714844 L 1837.121094 422.171875 C 1819.582031 442.84375 1815.757812 470.972656 1827.144531 495.574219 C 1838.535156 520.179688 1862.453125 535.472656 1889.570312 535.472656 L 2002.457031 535.472656 L 2002.457031 1390.039062 C 1902.863281 1293.464844 1779.527344 1221.265625 1642.140625 1183.148438 L 1642.140625 832.5 L 1755.03125 832.5 C 1782.140625 832.5 1806.0625 817.214844 1817.464844 792.59375 C 1828.859375 767.964844 1825.011719 739.832031 1807.46875 719.195312 L 1470.019531 321.746094 C 1456.738281 306.09375 1438.109375 297.472656 1417.574219 297.472656 C 1397.039062 297.472656 1378.417969 306.09375 1365.132812 321.742188 L 1027.695312 719.179688 C 1010.125 739.855469 1006.292969 767.992188 1017.683594 792.59375 C 1029.070312 817.207031 1052.992188 832.5 1080.109375 832.5 L 1193.003906 832.5 L 1193.003906 1183.148438 C 1055.625 1221.269531 932.289062 1293.46875 832.6875 1390.039062 L 832.6875 1129.515625 L 945.578125 1129.515625 C 972.695312 1129.515625 996.621094 1114.222656 1008.011719 1089.605469 C 1019.394531 1065 1015.558594 1036.878906 998.015625 1016.207031 L 660.5625 618.769531 C 647.277344 603.109375 628.65625 594.488281 608.121094 594.488281 C 587.585938 594.488281 568.964844 603.109375 555.679688 618.757812 L 218.210938 1016.21875 C 200.667969 1036.894531 196.851562 1065.023438 208.226562 1089.59375 C 219.609375 1114.21875 243.53125 1129.515625 270.65625 1129.515625 L 383.546875 1129.515625 L 383.546875 1607.230469 C 383.546875 1658.671875 425.40625 1700.519531 476.84375 1700.519531 L 629.433594 1700.519531 C 595.414062 1791.769531 576.765625 1890.453125 576.765625 1993.414062 C 576.828125 2457.019531 953.992188 2834.1875 1417.597656 2834.1875 C 1881.199219 2834.1875 2258.363281 2457.019531 2258.363281 1993.414062 C 2258.363281 1890.453125 2239.722656 1791.769531 2205.695312 1700.519531 L 2358.285156 1700.519531 C 2409.730469 1700.519531 2451.578125 1658.667969 2451.578125 1607.230469 L 2451.578125 535.472656 L 2564.472656 535.472656 C 2591.601562 535.472656 2615.527344 520.175781 2626.886719 495.589844 C 2638.304688 470.984375 2634.476562 442.84375 2616.914062 422.160156 Z M 1237.316406 743.941406 L 1122.859375 743.941406 L 1417.597656 396.796875 L 1712.332031 743.941406 L 1597.875 743.941406 C 1573.425781 743.941406 1553.597656 763.765625 1553.597656 788.21875 L 1553.597656 1163.703125 C 1509.316406 1156.46875 1463.894531 1152.644531 1417.597656 1152.644531 C 1371.300781 1152.644531 1325.875 1156.46875 1281.59375 1163.703125 L 1281.59375 788.21875 C 1281.59375 763.765625 1261.769531 743.941406 1237.316406 743.941406 Z M 476.898438 1611.964844 C 474.371094 1611.964844 472.15625 1609.753906 472.15625 1607.230469 L 472.15625 1085.238281 C 472.15625 1060.789062 452.332031 1040.960938 427.878906 1040.960938 L 313.417969 1040.960938 L 608.160156 693.824219 L 902.90625 1040.960938 L 788.445312 1040.960938 C 763.992188 1040.960938 744.167969 1060.789062 744.167969 1085.238281 L 744.167969 1490.5625 C 715.644531 1528.667969 690.28125 1569.265625 668.453125 1611.964844 Z M 1417.597656 2745.632812 C 1002.824219 2745.632812 665.382812 2408.1875 665.382812 1993.414062 C 665.382812 1578.640625 1002.824219 1241.199219 1417.597656 1241.199219 C 1832.367188 1241.199219 2169.808594 1578.640625 2169.808594 1993.414062 C 2169.808594 2408.1875 1832.367188 2745.632812 1417.597656 2745.632812 Z M 2407.308594 446.917969 C 2382.855469 446.917969 2363.03125 466.742188 2363.03125 491.195312 L 2363.03125 1607.226562 C 2363.03125 1609.753906 2360.816406 1611.964844 2358.292969 1611.964844 L 2166.738281 1611.964844 C 2144.910156 1569.273438 2119.550781 1528.667969 2091.023438 1490.5625 L 2091.023438 491.195312 C 2091.023438 466.742188 2071.199219 446.917969 2046.746094 446.917969 L 1932.285156 446.917969 L 2227.027344 99.773438 L 2521.769531 446.917969 Z M 1417.597656 1340.929688 C 1057.816406 1340.929688 765.113281 1633.632812 765.113281 1993.414062 C 765.113281 2353.195312 1057.816406 2645.894531 1417.597656 2645.894531 C 1777.375 2645.894531 2070.082031 2353.1875 2070.082031 1993.410156 C 2070.082031 1633.628906 1777.375 1340.929688 1417.597656 1340.929688 Z M 1417.597656 2557.339844 C 1106.644531 2557.339844 853.664062 2304.359375 853.664062 1993.410156 C 853.664062 1682.457031 1106.644531 1429.484375 1417.597656 1429.484375 C 1728.550781 1429.484375 1981.527344 1682.460938 1981.527344 1993.414062 C 1981.527344 2304.367188 1728.550781 2557.339844 1417.597656 2557.339844 Z M 1655.597656 2130.457031 C 1661.476562 2178.839844 1648.480469 2223.03125 1618.015625 2258.242188 C 1583.410156 2298.25 1526.617188 2325.386719 1461.875 2333.828125 L 1461.875 2378.289062 C 1461.875 2402.738281 1442.046875 2422.566406 1417.597656 2422.566406 C 1393.144531 2422.566406 1373.320312 2402.738281 1373.320312 2378.289062 L 1373.320312 2333.160156 C 1276.507812 2318.230469 1201.527344 2255.996094 1179.519531 2167.734375 C 1173.605469 2144.007812 1188.042969 2119.976562 1211.769531 2114.058594 C 1235.507812 2108.1875 1259.53125 2122.585938 1265.441406 2146.308594 C 1284.738281 2223.710938 1363.078125 2249.578125 1424.480469 2247.992188 C 1477.398438 2246.734375 1527.066406 2228.023438 1551.035156 2200.308594 C 1565.101562 2184.050781 1570.539062 2164.6875 1567.683594 2141.128906 C 1560.789062 2084.332031 1512.453125 2051.578125 1410.976562 2034.925781 C 1241.363281 2007.066406 1201.832031 1920.351562 1198.539062 1852.507812 C 1193.972656 1758.539062 1259.542969 1679.84375 1361.695312 1656.667969 C 1365.515625 1655.804688 1369.402344 1655.019531 1373.3125 1654.328125 L 1373.3125 1608.546875 C 1373.3125 1584.09375 1393.140625 1564.269531 1417.589844 1564.269531 C 1442.042969 1564.269531 1461.867188 1584.09375 1461.867188 1608.546875 L 1461.867188 1653.953125 C 1532.9375 1665.800781 1602.386719 1707.941406 1637.476562 1791.515625 C 1646.945312 1814.058594 1636.34375 1840.015625 1613.792969 1849.480469 C 1591.269531 1858.960938 1565.292969 1848.347656 1555.828125 1825.796875 C 1523.429688 1748.621094 1444.773438 1728.621094 1381.289062 1743.03125 C 1333.753906 1753.8125 1284.023438 1787.105469 1286.988281 1848.21875 C 1288.019531 1869.332031 1290.738281 1925.4375 1425.328125 1947.539062 C 1477.835938 1956.148438 1637.625 1982.382812 1655.597656 2130.457031 Z M 1655.597656 2130.457031 " fill-opacity="1" fill-rule="nonzero"/></svg>